<?xml version="1.0" encoding="UTF-8" standalone="no"?> <svg width="512" height="512" viewBox="0 0 512 512" fill="none" xmlns="http://www.w3.org/2000/svg">
<path d="M32 48C32 39.1634 39.1634 32 48 32H80C88.8366 32 96 39.1634 96 48V176C96 184.837 88.8366 192 80 192H48C39.1634 192 32 184.837 32 176V48Z" fill="#4A0095"/>
<path d="M320 56H96V160H176C193.673 160 208 174.327 208 192V200C208 213.255 218.745 224 232 224C245.255 224 256 213.255 256 200V144C256 126.327 270.327 112 288 112H304C321.673 112 336 126.327 336 144V152C336 165.255 346.745 176 360 176C373.255 176 384 165.255 384 152V120C384 84.6538 355.346 56 320 56Z" fill="#D68100"/>
<path d="M320 56H96V130.286H194.971C215.422 130.286 232 146.864 232 167.314V180C232 186.627 237.373 192 244 192C250.627 192 256 186.627 256 180V144C256 126.327 270.327 112 288 112H338C350.15 112 360 121.85 360 134V144C360 150.627 365.373 156 372 156C378.627 156 384 150.627 384 144V120C384 84.6538 355.346 56 320 56Z" fill="#FEE34C"/>
<path fill-rule="evenodd" clip-rule="evenodd" d="M120 88C120 83.5817 123.582 80 128 80H176C180.418 80 184 83.5817 184 88C184 92.4183 180.418 96 176 96H128C123.582 96 120 92.4183 120 88Z" fill="white"/>
<path d="M32 40C32 35.5817 35.5817 32 40 32H64C68.4183 32 72 35.5817 72 40V160C72 164.418 68.4183 168 64 168H40C35.5817 168 32 164.418 32 160V40Z" fill="#7737FF"/>
<path fill-rule="evenodd" clip-rule="evenodd" d="M24 48C24 34.7452 34.7452 24 48 24H80C93.2548 24 104 34.7452 104 48V176C104 189.255 93.2548 200 80 200H48C34.7452 200 24 189.255 24 176V48ZM48 40C43.5817 40 40 43.5817 40 48V176C40 180.418 43.5817 184 48 184H80C84.4183 184 88 180.418 88 176V48C88 43.5817 84.4183 40 80 40H48Z" fill="#560000"/>
<path fill-rule="evenodd" clip-rule="evenodd" d="M320 64H96V48H320C359.764 48 392 80.2355 392 120V152C392 169.673 377.673 184 360 184C342.327 184 328 169.673 328 152V144C328 130.745 317.255 120 304 120H288C274.745 120 264 130.745 264 144V200C264 217.673 249.673 232 232 232C214.327 232 200 217.673 200 200V192C200 178.745 189.255 168 176 168H96V152H176C198.091 152 216 169.909 216 192V200C216 208.837 223.163 216 232 216C240.837 216 248 208.837 248 200V144C248 121.909 265.909 104 288 104H304C326.091 104 344 121.909 344 144V152C344 160.837 351.163 168 360 168C368.837 168 376 160.837 376 152V120C376 89.0721 350.928 64 320 64Z" fill="#560000"/>
<path d="M336 408C336 447.765 303.765 480 264 480C224.235 480 192 447.765 192 408C192 368.235 224.235 336 264 336C303.765 336 336 368.235 336 408Z" fill="#AF2A00"/>
<path d="M320 400C320 435.346 291.346 464 256 464C220.654 464 192 435.346 192 400C192 364.654 220.654 336 256 336C291.346 336 320 364.654 320 400Z" fill="#FF4242"/>
<path fill-rule="evenodd" clip-rule="evenodd" d="M336 128H384V144H336V128Z" fill="#560000"/>
<path fill-rule="evenodd" clip-rule="evenodd" d="M264 344C228.654 344 200 372.654 200 408C200 443.346 228.654 472 264 472C299.346 472 328 443.346 328 408C328 372.654 299.346 344 264 344ZM184 408C184 363.817 219.817 328 264 328C308.183 328 344 363.817 344 408C344 452.183 308.183 488 264 488C219.817 488 184 452.183 184 408Z" fill="#560000"/>
<path fill-rule="evenodd" clip-rule="evenodd" d="M214.928 307.005C217.137 310.832 215.826 315.724 212 317.933C196.19 327.061 183.061 340.19 173.933 356C164.805 371.81 160 389.744 160 408C160 412.418 156.418 416 152 416C147.582 416 144 412.418 144 408C144 386.936 149.545 366.242 160.077 348C170.609 329.758 185.758 314.609 204 304.077C207.826 301.868 212.719 303.179 214.928 307.005Z" fill="#560000"/>
<path fill-rule="evenodd" clip-rule="evenodd" d="M367.278 363.939C371.455 362.499 376.009 364.718 377.448 368.895C385.747 392.97 386.171 419.06 378.661 443.392C377.358 447.614 372.879 449.98 368.657 448.677C364.435 447.374 362.069 442.895 363.373 438.673C369.882 417.585 369.514 394.974 362.322 374.109C360.882 369.932 363.101 365.379 367.278 363.939Z" fill="#560000"/>
<path d="M296 408C296 425.673 281.673 440 264 440C246.327 440 232 425.673 232 408C232 390.327 246.327 376 264 376C281.673 376 296 390.327 296 408Z" fill="#D68100"/>
<path d="M272 396C272 407.046 263.046 416 252 416C240.954 416 232 407.046 232 396C232 384.954 240.954 376 252 376C263.046 376 272 384.954 272 396Z" fill="#FEE34C"/>
<path fill-rule="evenodd" clip-rule="evenodd" d="M264 384C250.745 384 240 394.745 240 408C240 421.255 250.745 432 264 432C277.255 432 288 421.255 288 408C288 394.745 277.255 384 264 384ZM224 408C224 385.909 241.909 368 264 368C286.091 368 304 385.909 304 408C304 430.091 286.091 448 264 448C241.909 448 224 430.091 224 408Z" fill="#560000"/>
<path fill-rule="evenodd" clip-rule="evenodd" d="M328 408V144H344V408H328Z" fill="#560000"/>
</svg>
